#!OML:ASF F:\VICON\USERDATA\INSTALL\rory3\rory3.ASF
:FULLY-SPECIFIED
:DEGREES
53
root 0.4688561035583384 18.20205056056192 7.915192111389782 -5.078574282223784 2.261809593870264 -4.90561102402918
lfemur -15.285052410061716 -0.602251081980206 -14.431551793654966
ltibia 68.4618792478172
lfoot -5.741255262271146 -5.437926318489746
ltoes -19.95838584273337
rfemur -9.523522286927896 3.9854053573235273 31.577377196279382
rtibia 27.50306745430074
rfoot -11.61623594151208 -7.9348853275180815
rtoes 7.597866292508937
lowerback 11.23881853031624 -0.42612619627456316 1.649042885377925
upperback -0.13695834804262186 -0.2736627709969627 2.662338509001945
thorax -6.642821701131098 -0.15339823555163004 1.9873655430562929
lowerneck -15.928209206286118 -3.2302650038374807 -1.8943394801194033
upperneck 21.78606751357797 -4.178271954886426 1.1726265084172183
head 9.65868177970176 -1.999340304013641 0.22322353149032292
lclavicle 3.0242360478295546e-16 5.742373068358926e-17
lhumerus -33.846114021671085 3.1006510827020857 80.91649465786567
lradius 29.0657440577027
lwrist 7.917897733420594
lhand -29.213997226733667 18.51294393000171
lfingers 7.125020000000001
lthumb -2.571846555996899 48.75931719865541
rclavicle 2.987714643528077e-16 5.507246509739495e-17
rhumerus -32.63531086501078 -20.29700628899505 -77.14018582409071
rradius 25.477158803629653
rwrist 5.513682660183859
rhand -16.812858223657162 21.667945639187433
rfingers 7.125020000000001
rthumb 9.170016933843 -8.196113554512426
54
root 0.4679682935021124 18.162714705935905 8.673239485985988 -4.489547545797838 1.2387031596967781 -5.318459048011196
lfemur -18.705369404218867 0.05436424839242893 -14.01149259466764
ltibia 66.24622294212718
lfoot -6.650247970486885 -4.012178875452665
ltoes -18.180431691409453
rfemur -7.700438216868232 4.317820742917214 32.189900340987904
rtibia 27.85832306658718
rfoot -12.883886712631293 -8.07407797283585
rtoes 7.905856648192319
lowerback 11.224659150636866 -0.04766689415394368 2.5188456879568752
upperback -0.21780412344774583 0.35600190800938675 2.499902172653825
thorax -6.676438201924347 0.1298090698320582 1.2164986489077771
lowerneck -15.904017655784894 -3.3169040719966767 -1.8819049660088925
upperneck 21.89502751415137 -4.346429687169366 1.2672066586667359
head 9.699591395105454 -2.0515027501815415 0.20647111352101116
lclavicle 2.9958531781807336e-16 5.597954929707172e-17
lhumerus -34.25900117707583 3.0861208034155996 80.7369679075222
lradius 29.170437179199713
lwrist 9.71677197036469
lhand -29.285251169024058 17.96405946838899
lfingers 7.125020000000001
lthumb -2.742163322717528 47.95152620835008
rclavicle 2.9903409084348474e-16 5.5260511960749357e-17
rhumerus -31.198441824969812 -18.71286817792028 -78.0532326234182
rradius 26.717501713060436
rwrist 4.2362486683594875
rhand -17.088157311563688 20.42163392961101
rfingers 7.125020000000001
rthumb 8.893231039343481 -9.405620293270985
55
root 0.4817807107255364 18.07586166308371 9.124040820531865 -4.0190469605911305 0.5107919059093419 -5.834586039945809
lfemur -21.55270702548716 0.23640626295209932 -13.524754539651166
ltibia 62.09185039377863
lfoot -8.694717527731585 -2.396946199842145
ltoes -17.45658220821776
rfemur -6.089581124004353 4.228184867621291 32.772602055996515
rtibia 28.198846374214735
rfoot -13.577437550922841 -8.171932387518883
rtoes 8.187150618417526
lowerback 11.427116748481213 0.2507449532728454 3.6167959663504083
upperback -0.301467508771582 0.9548556667773656 2.397125233231569
thorax -6.749284828618881 0.39592794551808014 0.3924877425602873
lowerneck -15.950060567184986 -3.3899952664853563 -1.8791166568277577
upperneck 21.87022540268826 -4.490352637307407 1.3542204178421677
head 9.693286405768498 -2.0982794493247523 0.1924691556491438
lclavicle 3.015785269639963e-16 5.733469959732047e-17
lhumerus -34.441186543188074 3.148219580452998 80.67931137813517
lradius 29.14948583572952
lwrist 11.549155352638152
lhand -29.507026169531755 17.49118755647853
lfingers 7.125020000000001
lthumb -3.0560123320467434 47.087460996617835
rclavicle 2.991752023684701e-16 5.536158365489354e-17
rhumerus -29.810082975000302 -17.244114732248732 -78.70840939914139
rradius 28.118648754750566
rwrist 3.0208296936286345
rhand -17.497014932382232 19.894341005543872
rfingers 7.125020000000001
rthumb 8.520436002173245 -9.817698431569903
56
root 0.5012993545915472 18.004622521648162 9.700579171866815 -3.3926886800089964 -0.2722979356985154 -6.322106593032831
lfemur -23.669285993438802 0.372192321317685 -12.994945976316753
ltibia 55.92240757993294
lfoot -7.3324983876438345 -1.0739085578887648
ltoes -15.235726097612153
rfemur -4.232694595529445 4.837507805107147 33.17350222734453
rtibia 27.784864791099295
rfoot -13.704247238457986 -8.3261391758928
rtoes 8.28124100730301
lowerback 11.464979269564319 0.6091225926564886 4.672695961310678
upperback -0.28607185717903405 1.611802223509796 2.33697077055693
thorax -6.695451904114655 0.6732137243107308 -0.43911143481876347
lowerneck -16.025234801237513 -3.450421119008612 -1.8838148831131583
upperneck 21.683969967723613 -4.607678173445214 1.4471545481273493
head 9.639869057917446 -2.1360634093888105 0.18484371607527375
lclavicle 3.0653340047229704e-16 6.029198978664636e-17
lhumerus -34.425885791000816 3.2849583175482873 80.7242992311849
lradius 28.96512545698493
lwrist 12.708802755003585
lhand -29.811124821970697 17.20437885877114
lfingers 7.125020000000001
lthumb -3.3462660310571573 46.585500568278164
rclavicle 2.9974117067591284e-16 5.576763643599518e-17
rhumerus -28.432569730724754 -15.986375902814082 -79.08755266890931
rradius 29.48483703200659
rwrist 1.9157733511022037
rhand -17.913424089652732 20.35867563977233
rfingers 7.125020000000001
rthumb 8.1829688215865 -9.274545731745476
